<?xml version="1.0" encoding="UTF-8"?>
<svg xmlns="http://www.w3.org/2000/svg" xmlns:xlink="http://www.w3.org/1999/xlink" width="480px" height="480px" viewBox="0 0 480 480" version="1.1">
<g id="surface1">
<path style=" stroke:none;fill-rule:nonzero;fill:rgb(0%,0%,0%);fill-opacity:1;" d="M 356.234375 450.074219 C 354.449219 451.019531 354.601562 451.320312 356.308594 450.449219 C 356.863281 450.226562 357.328125 449.910156 357.734375 449.535156 C 357.734375 449.21875 357.734375 449.21875 356.234375 450.074219 Z M 359.835938 448.125 C 358.980469 448.828125 358.980469 448.828125 360 448.363281 C 360.539062 448.050781 361.019531 447.75 361.019531 447.660156 C 361.019531 447.253906 360.78125 447.34375 359.835938 448.125 Z M 362.175781 446.714844 C 361.320312 447.421875 361.320312 447.421875 362.339844 446.953125 C 362.894531 446.640625 363.359375 446.308594 363.359375 446.234375 C 363.359375 445.859375 363.121094 445.933594 362.175781 446.714844 Z M 364.546875 445.320312 C 363.691406 446.023438 363.691406 446.023438 364.679688 445.546875 C 365.234375 445.246094 365.699219 444.929688 365.699219 444.839844 C 365.699219 444.464844 365.460938 444.539062 364.546875 445.320312 Z M 367.738281 443.203125 C 366.105469 444.300781 365.535156 445.003906 367.035156 444.226562 C 368.039062 443.609375 369.75 442.261719 369.449219 442.261719 C 368.804688 442.5 368.265625 442.90625 367.726562 443.203125 Z M 224.296875 0.164062 C 223.199219 0.238281 219.914062 0.539062 217.035156 0.78125 C 148.816406 6.960938 84.988281 43.679688 44.535156 100.246094 C 22.171875 131.25 7.648438 167.265625 2.175781 205.078125 C 0.238281 218.28125 0 222.179688 0 240.074219 C 0 257.953125 0.238281 261.796875 2.175781 274.996094 C 15.238281 365.160156 79.378906 440.851562 166.320312 468.898438 C 181.964844 473.894531 198.359375 477.34375 217.035156 479.460938 C 224.296875 480.238281 255.691406 480.238281 262.949219 479.460938 C 295.230469 475.859375 322.484375 467.894531 349.453125 454.140625 C 353.59375 452.039062 354.375 451.484375 353.820312 451.019531 C 340.621094 433.605469 327.660156 416.175781 314.683594 398.59375 L 276.328125 346.800781 L 228.285156 275.625 C 212.265625 251.804688 196.183594 228.046875 179.851562 204.464844 C 179.683594 204.464844 179.476562 236.101562 179.386719 274.679688 C 179.21875 342.253906 179.21875 345 178.363281 346.558594 C 177.511719 348.433594 176.101562 349.996094 174.226562 350.863281 C 172.738281 351.570312 171.40625 351.71875 164.308594 351.71875 L 156.195312 351.71875 L 154.078125 350.398438 C 152.761719 349.546875 151.664062 348.359375 150.960938 346.964844 L 149.941406 344.851562 L 150.015625 250.785156 L 150.179688 156.71875 L 151.664062 154.84375 C 152.609375 153.691406 153.78125 152.746094 155.101562 152.039062 C 157.066406 151.09375 157.84375 150.945312 165.960938 150.945312 C 175.484375 150.945312 177.058594 151.320312 179.566406 154.066406 C 199.003906 183.046875 218.386719 212.101562 237.449219 241.246094 C 268.636719 288.523438 311.203125 353.039062 332.128906 384.691406 L 370.183594 442.273438 L 372.058594 441.03125 C 390.34375 428.835938 406.980469 414.316406 421.335938 397.753906 C 451.574219 363.136719 471.195312 320.550781 477.839844 275.101562 C 479.773438 261.898438 480.015625 257.984375 480.015625 240.105469 C 480.015625 222.210938 479.773438 218.386719 477.839844 205.183594 C 464.773438 115.019531 400.636719 39.328125 313.695312 11.265625 C 297.433594 6.121094 280.710938 2.609375 263.773438 0.808594 C 259.230469 0.34375 228.210938 -0.210938 224.308594 0.195312 Z M 322.5 145.320312 C 324.765625 146.398438 326.476562 148.441406 327.253906 150.78125 C 327.660156 152.039062 327.734375 178.125 327.660156 236.878906 L 327.496094 321.238281 L 312.660156 298.441406 L 297.734375 275.625 L 297.734375 214.378906 C 297.734375 174.675781 297.898438 152.414062 298.109375 151.320312 C 298.816406 148.816406 300.523438 146.714844 302.804688 145.394531 C 304.664062 144.449219 305.386719 144.375 312.808594 144.375 C 319.753906 144.375 320.925781 144.449219 322.484375 145.320312 Z M 322.5 145.320312 "/>
</g>
</svg>
